<?xml version="1.0" encoding="UTF-8"?><svg id="Layer_1" xmlns="http://www.w3.org/2000/svg" viewBox="0 0 395.75 395.81"><defs><style>.cls-1{fill:#000815;}.cls-2{fill:#8a8a8a;}</style></defs><path d="m388.73,239.36H7.08c-1.45,0-2.71-1-3.02-2.41-12.63-58.39,2.33-140.13,72.05-194.91,68.55-53.87,164.37-55.94,234.89-6.4,73.41,51.57,94.66,135.31,80.76,201.29-.3,1.42-1.57,2.43-3.02,2.43Z"/><g><path class="cls-1" d="m14.69,255.03c-3.11,0-5.28,3.07-4.26,6.01.67,1.9,1.29,3.76,1.84,5.65.71,2.45,1.84,3.27,4.52,3.27,120.74-.09,241.49-.07,362.23-.07.67,0,1.35.09,1.99-.03.51-.09,1.27-.33,1.41-.7,1.41-3.81,2.76-7.63,4.15-11.58.44-1.24-.48-2.54-1.79-2.54H14.69Z"/><path class="cls-2" d="m26.52,297.03c1.13,2.32,2.58,3.09,5.2,3.09,110.82-.07,221.64-.06,332.46-.06.67,0,1.36.1,1.99-.03.59-.13,1.39-.36,1.64-.8,2.15-3.72,4.23-7.48,6.45-11.47.59-1.07-.18-2.38-1.4-2.38H22.95c-1.22,0-1.99,1.31-1.4,2.38,1.76,3.18,3.46,6.19,4.97,9.29Z"/><path class="cls-1" d="m48.83,328.1c1.36,1.73,2.85,2.36,5.07,2.35,96-.06,192-.05,288.01-.05.67,0,1.34.06,2-.02.47-.06,1.07-.16,1.34-.48,3.13-3.68,6.23-7.39,9.52-11.33.98-1.18.15-2.97-1.38-2.97H42.44c-1.53,0-2.36,1.79-1.39,2.96,2.72,3.28,5.29,6.37,7.78,9.53Z"/><path d="m67.22,345.92c-.1.23-.21.47-.31.7,5.74,4.41,11.45,8.86,17.25,13.18.77.58,2.01.75,3.04.75,73.82.03,147.64.04,221.46-.01,1.15,0,2.51-.39,3.42-1.07,5.12-3.85,10.12-7.87,15.19-11.79.57-.44,1.32-.63,1.99-.94l-.76-.81H67.22Z"/><path class="cls-1" d="m198.05,395.81c28.65-.03,56-5.93,81.87-18.14.8-.38.52-1.59-.36-1.59H116.27c-.89,0-1.17,1.21-.36,1.59,26,12.26,53.43,18.17,82.14,18.14Z"/></g></svg>