<?xml version="1.0" encoding="UTF-8"?><svg id="Layer_1" xmlns="http://www.w3.org/2000/svg" viewBox="0 0 307.5 384"><path d="m291.83,384H15.83c-12.65-5.26-15.69-9.9-15.69-23.94C.13,253.75.23,147.44,0,41.14c-.03-11.96,7.61-22.36,22.1-22.01,20.97.51,41.97.16,62.96.07,1.59,0,3.52-.48,4.71-1.45,4.17-3.4,8.8-5.03,14.15-4.98,7.24.07,14.49.06,21.74-.03,1.14-.01,2.72-.25,3.34-1,5.35-6.45,12.43-9.77,20.33-11.73h9c7.94,1.91,14.98,5.29,20.35,11.73.63.75,2.2.99,3.34,1.01,7.5.09,15,.04,22.5.05,4.8,0,8.97,1.62,12.83,4.5,1.45,1.08,3.51,1.88,5.29,1.89,21.12.13,42.24.06,63.37.11,2.48,0,5.05.1,7.41.74,9.02,2.45,14.07,9.93,14.07,20.5,0,106.24,0,212.47,0,318.71,0,1.87.05,3.75-.02,5.62-.19,4.91-1.5,9.62-5.26,12.82-3.04,2.59-6.88,4.24-10.37,6.31Zm-22.75-38.44c0-1.58,0-2.91,0-4.24,0-14.87,0-29.74,0-44.62,0-76.48,0-152.97,0-229.45,0-7.98-1.65-9.6-9.71-9.6-12.25,0-24.5-.09-36.74.09-1.9.03-3.78,1.28-5.68,1.96-3.92,1.41-7.82,3.99-11.76,4.02-34.24.32-68.48.19-102.73.18-4.55,0-8.44-1.68-12.1-4.36-1.46-1.07-3.53-1.8-5.33-1.83-12.37-.16-24.74-.08-37.12-.08-7.56,0-9.34,1.75-9.35,9.21,0,91.6,0,183.21,0,274.81,0,1.31.11,2.62.17,3.88h230.32ZM83.19,32.25c-1.39-.07-2.6-.18-3.82-.18-19.12-.01-38.25-.01-57.37,0-7.2,0-9.07,1.89-9.07,9.11,0,106.99,0,213.98,0,320.97,0,7.12,1.98,9.08,9.17,9.08,87.87,0,175.73,0,263.6,0,6.91,0,8.98-2.04,8.98-8.9,0-107.11,0-214.23,0-321.34,0-6.96-1.95-8.91-8.9-8.91-19.12-.01-38.25,0-57.37,0-1.31,0-2.62,0-3.93,0v12.81c1.56,0,2.9,0,4.25,0,10.75,0,21.5-.02,32.25,0,12.96.03,20.89,7.81,20.89,20.71.03,92.74.02,185.48,0,278.22,0,9.47-5.17,14.63-14.59,14.63-75.74.01-151.48.01-227.23,0-9.07,0-14.28-5.11-14.28-14.12-.02-92.99-.03-185.98,0-278.97,0-12.49,7.97-20.41,20.37-20.46,11-.05,22-.01,33-.01,1.33,0,2.65,0,4.04,0v-12.62Zm70.57,18.89c16.36,0,32.72,0,49.09,0,6.49,0,8.59-2.07,8.63-8.42.02-3,.03-6,0-8.99-.06-5.87-2.32-8.14-8.22-8.16-8.62-.03-17.24-.09-25.85.03-3.33.05-5.61-1.19-7.52-3.91-8.33-11.84-23.8-11.89-32.05-.08-2,2.87-4.4,4.06-7.86,4-8.62-.14-17.24-.08-25.85-.03-5.61.03-7.88,2.36-7.94,8.04-.03,3-.02,6,0,8.99.03,6.46,2.07,8.52,8.51,8.53,16.36.02,32.72,0,49.09,0Z"/><path d="m128.27,115.21c0,8.12.04,16.24,0,24.36-.05,8.73-5.29,14.04-13.99,14.07-16.24.05-32.48.05-48.71,0-8.81-.02-14.06-5.12-14.11-13.91-.1-16.36-.09-32.73,0-49.09.05-8.67,5.14-13.8,13.77-13.86,16.36-.1,32.73-.09,49.09,0,8.78.05,13.92,5.31,13.96,14.08.04,8.12,0,16.24,0,24.36Zm-12.99,25.43v-50.84h-50.79v50.84h50.79Z"/><path d="m51.41,294.07c0-7.99-.06-15.99.02-23.98.09-9.04,5.2-14.1,14.28-14.13,16.11-.05,32.23-.05,48.34,0,8.98.03,14.19,5.27,14.21,14.23.04,16.11.03,32.23,0,48.34-.02,9-5.2,14.29-14.12,14.32-16.24.06-32.48.06-48.71,0-8.77-.03-13.9-5.19-13.99-14.04-.09-8.24-.02-16.49-.02-24.73Zm63.78,25.81v-50.8h-50.61v50.8h50.61Z"/><path d="m90.08,166.45c8.24,0,16.49-.05,24.73.01,8.06.06,13.39,5.3,13.43,13.39.08,16.61.08,33.22,0,49.83-.04,8.12-5.29,13.39-13.38,13.43-16.73.07-33.47.08-50.21,0-7.8-.04-13.08-5-13.17-12.81-.19-16.98-.19-33.97,0-50.95.09-7.95,5.46-12.84,13.49-12.89,8.37-.05,16.74-.01,25.1-.01Zm25.18,63.69v-50.72h-50.79v50.72h50.79Z"/><path d="m198.61,198.42c-16.11,0-32.22.01-48.34-.02-1.61,0-3.31.01-4.82-.45-2.95-.9-4.48-3.14-4.35-6.24.12-2.92,1.68-4.97,4.53-5.73,1.42-.38,2.97-.39,4.45-.39,32.35-.02,64.7-.02,97.05-.01,1,0,2.01-.02,2.99.09,3.72.44,6.05,2.96,6,6.42-.05,3.31-2.29,5.74-5.82,6.2-1.23.16-2.49.12-3.74.13-15.99,0-31.97,0-47.96,0Z"/><path d="m198.88,96c16.49,0,32.98.03,49.47-.02,3.43-.01,6.23.88,7.45,4.37,1.45,4.15-1.34,8.15-5.91,8.37-3.74.18-7.49.06-11.24.06-29.36,0-58.72,0-88.07,0-1.12,0-2.25.06-3.37-.04-3.61-.3-6.12-2.91-6.13-6.32-.01-3.39,2.49-6.18,6.08-6.35,3.99-.19,7.99-.06,11.99-.06,13.24,0,26.48,0,39.73,0Z"/><path d="m198.44,134.34c-16.61,0-33.23-.02-49.84.02-2.97,0-5.42-.74-6.84-3.58-1.92-3.85.39-8.32,4.78-9.09,1.22-.21,2.49-.13,3.74-.13,32.23,0,64.46,0,96.69,0,.87,0,1.75-.04,2.62.02,4.1.28,6.71,2.95,6.55,6.68-.15,3.57-2.72,6.03-6.73,6.05-14.62.07-29.23.03-43.85.03-2.37,0-4.75,0-7.12,0Z"/><path d="m198.62,275.23c16.62,0,33.23.03,49.85-.03,3.13-.01,5.73.77,7.13,3.76,1.97,4.2-.95,8.79-5.82,8.99-4.61.19-9.24.05-13.87.05-28.36,0-56.72,0-85.08,0-1.12,0-2.25.05-3.37-.03-3.83-.26-6.44-2.93-6.39-6.47.05-3.55,2.67-6.19,6.57-6.24,7.37-.1,14.74-.04,22.11-.04,9.62,0,19.24,0,28.86,0Z"/><path d="m198.6,313.56c-16.49,0-32.98,0-49.47,0-5.19,0-8-2.23-8.05-6.28-.05-4.03,2.88-6.48,7.9-6.48,33.11-.02,66.21-.02,99.32,0,5.01,0,7.92,2.47,7.85,6.52-.07,3.91-2.87,6.23-7.7,6.24-16.62.02-33.23,0-49.85,0Z"/><path d="m198.78,211.25c16.24,0,32.47-.02,48.71.03,1.72,0,3.94-.18,5.03.76,1.62,1.39,3.46,3.78,3.34,5.62-.13,2.02-2.08,4.28-3.83,5.69-1.14.92-3.34.68-5.07.68-32.22.03-64.45.02-96.67.02-.87,0-1.75.04-2.62-.03-4.13-.35-6.73-3.01-6.59-6.69.14-3.56,2.68-6.01,6.74-6.04,11.99-.09,23.98-.04,35.97-.05,5,0,9.99,0,14.99,0Z"/><path d="m82.88,118.07c4.79-6.4,9.19-12.62,14.02-18.49,1.41-1.71,4.02-3.26,6.16-3.37,4.74-.23,7.71,5.52,4.87,9.52-6.36,8.96-13.02,17.71-19.78,26.37-2.37,3.04-6.01,3.08-8.96.53-2.17-1.87-4.19-3.94-6.16-6.02-2.87-3.03-3.1-6.34-.76-9.07,2.27-2.65,5.72-2.88,9.07-.61.4.27.78.57,1.53,1.12Z"/><path d="m82.94,297.18c4.75-6.34,9.15-12.56,13.99-18.43,1.4-1.7,4.03-3.22,6.17-3.32,4.73-.22,7.67,5.54,4.81,9.54-6.37,8.95-13.03,17.71-19.8,26.37-2.36,3.02-6.01,3.03-8.97.48-2.08-1.79-3.99-3.78-5.9-5.76-3.08-3.2-3.38-6.54-.95-9.34,2.35-2.71,5.8-2.82,9.38-.31.3.21.62.38,1.26.77Z"/><path d="m89.98,213.26c-3.13,3.29-5.46,5.9-7.97,8.33-2.99,2.9-6.76,3-9.35.47-2.68-2.63-2.7-6.28.24-9.33,2.49-2.59,5.24-4.94,8.31-7.79-2.99-2.89-5.55-5.23-7.97-7.71-3.19-3.26-3.39-6.84-.67-9.6,2.61-2.65,6.46-2.45,9.63.55,1.27,1.2,2.52,2.43,3.72,3.7,1.2,1.26,2.32,2.6,4.14,4.65,1.77-2.17,3.07-4.03,4.64-5.63,5.87-5.98,9.19-6.83,12.52-3.39,3.18,3.27,2.19,6.74-3.64,12.54-1.49,1.49-3.06,2.89-5.07,4.78,2.84,2.71,5.4,5.03,7.82,7.5,3.13,3.19,3.36,6.91.76,9.61-2.7,2.79-6.59,2.57-9.88-.74-2.37-2.38-4.54-4.96-7.24-7.93Z"/></svg>