<?xml version="1.0" encoding="UTF-8"?><svg id="Layer_1" xmlns="http://www.w3.org/2000/svg" viewBox="0 0 384 384"><path d="m384,357.75v10.5c-2.33,8.17-7.57,13.43-15.75,15.75h-173.25c-6.2-1.9-11.91-4.99-13.9-11.38-1.47-4.71-2.06-10.15-1.32-15.01,1.26-8.28,3.88-16.35,5.99-24.75-.62,0-1.93,0-3.25,0-19.73,0-39.46.03-59.19-.01-12.19-.02-20.83-8.06-20.85-19.28-.02-11.22,8.52-19.05,20.86-19.15,1.75-.01,3.51.13,5.24-.07.86-.1,2.05-.56,2.42-1.23,1.95-3.57,3.7-7.26,5.84-11.56-2.08,0-3.52,0-4.97,0-34.22,0-68.44,0-102.65,0-1.87,0-3.75-.02-5.61-.15-10.34-.76-18.93-7.49-22.24-17.35C.92,262.79.45,261.52,0,260.25c0-79.75,0-159.5,0-239.25,1.93-5.54,3.95-11.19,8.96-14.65,3.71-2.56,8.01-4.26,12.04-6.35,101,0,202,0,303,0,16.94,6.09,21.65,12.89,21.65,31.26,0,34.86-.03,69.72.09,104.58,0,2.04.8,4.41,2,6.07,10.5,14.44,16.48,30.45,16.9,48.35.23,9.87,0,19.74.16,29.61.23,14.06-5.07,25.47-15.91,34.39-.9.74-1.97,1.81-2.14,2.86-2.42,15.1-11.22,25.51-23.91,33.17-2.03,1.22-3.92,2.66-6.37,4.33,4.58.9,8.43,1.42,12.14,2.43,27.25,7.4,46.02,23.66,53.48,51.59.8,3,1.29,6.08,1.92,9.12Zm-175.94-204.1c-3.17,0-5.53,0-7.9,0-13.07-.05-20.93-7.94-20.93-21.08-.01-28.5,0-56.99,0-85.49,0-13.86,7.69-21.52,21.59-21.52,32.37,0,64.74,0,97.11,0,14.55,0,22.12,7.59,22.13,22.2,0,22.37-.02,44.74.05,67.12,0,1.37.19,3.37,1.07,4.01,3.57,2.62,7.44,4.83,11.55,7.4.06-1.33.14-2.29.14-3.24,0-31.87.02-63.74,0-95.61,0-9.68-5.1-14.67-14.9-14.67-96.74,0-193.47,0-290.21,0-10.04,0-14.97,4.92-14.97,14.94,0,70.36,0,140.73,0,211.09,0,1.33,0,2.67,0,4.16h13.05c6.31-27.06,24.78-40.12,50.67-44.47.47-4.9.45-4.89-2.74-8.03-10.22-10.07-18.51-21.28-21.38-35.77-.19-.97-1.3-2.08-2.26-2.54-7.98-3.81-11.63-10.27-11.75-18.9-.08-5.87-.14-11.75,0-17.62.57-23.27,10.32-41.56,29.87-54.4,1.67-1.1,2.24-2.2,2.28-4.18.36-17.65,14.56-31.55,32.01-31.48,17.46.07,31.62,14.16,31.72,31.75.01,2.3.73,3.55,2.6,4.77,11.18,7.36,19.15,17.41,24.36,29.68,6.36,15,6.04,30.74,4.55,46.47-.6,6.39-4.86,10.73-10.56,13.65-1.16.6-2.56,1.82-2.8,2.98-2.95,14.47-11.17,25.75-21.55,35.66-2.48,2.37-3.36,4.71-2.47,7.97,25.99,4.39,44.36,17.55,50.6,44.46h25.42c-8.48-14.27-5.42-29.66-5.97-44.61-.56-15.47,2.15-30.29,9.63-44.7Zm73.29,102.02c5.62,0,11.26.26,16.86-.05,12.11-.67,24.18-1.79,35.38-7.05,11.72-5.5,18.03-14.7,18.25-27.72.17-10.12.22-20.24-.04-30.35-.12-4.71-.69-9.49-1.72-14.09-7.3-32.58-37.88-56.03-71.25-54.82-33.05,1.2-62.24,26.81-66.4,59.88-1.8,14.27-.67,28.91-.85,43.38,0,.49.15.98.24,1.47,2.62,13.84,12.03,21.01,24.64,24.9,14.64,4.52,29.77,4.65,44.89,4.44Zm.29,115.55c27.11,0,54.21,0,81.32,0,6.07,0,8.46-2.4,8.2-8.46-.53-12.5-4.57-23.75-12.77-33.27-13.34-15.51-30.77-22.03-50.81-22.2-17.24-.15-34.49-.35-51.71.12-7.4.2-15.01,1.19-22.1,3.27-24.47,7.18-40.97,27.94-41.74,51.44-.22,6.85,1.91,9.11,8.67,9.11,26.98,0,53.96,0,80.95,0Zm25.25-258.9c.1-.41.31-.86.31-1.32.02-21.86.07-43.72-.02-65.58-.02-4.83-2.64-7.06-7.76-7.07-33.23-.03-66.46-.03-99.69,0-5.42,0-7.73,2.39-7.73,7.83-.02,28.98-.02,57.96,0,86.95,0,5.22,2.33,7.62,7.49,7.71,4.87.09,9.74.06,14.62-.01.93-.01,2.18-.13,2.74-.71,3.67-3.79,7.2-7.72,11.19-12.06-3.3,0-6.02.03-8.74,0-5.18-.07-7.96-2.31-8-6.38-.04-4.09,2.71-6.38,7.87-6.4,8.87-.04,17.74.07,26.61-.07,2.31-.04,4.72-.47,6.9-1.24,12.2-4.29,24.67-6.29,37.56-4.57,5.52.74,10.98,1.93,16.65,2.94Zm-204.92,80.48c3.73-1.39,7.19-2.04,9.91-3.81,14.65-9.54,25.54-21.94,28.41-39.88.78-4.86,2.47-8.12,8.02-8.55,3.27-.26,5.58-3.4,5.23-6.3-.4-3.32-2.42-5.4-5.74-6.04-.97-.19-1.99-.17-2.99-.21-10.39-.36-19.55-3.84-27.13-11.01-2.47-2.33-4.5-2.02-7.34-.58-5.42,2.75-10.97,5.43-16.74,7.28-11.53,3.71-23.58,3.95-35.58,4.4-3.92.15-6.69,2.76-6.84,6.09-.15,3.25,2.2,5.86,5.95,6.6,5.1,1.01,6.32,2.02,7.06,7.18,2.47,17.31,12.56,29.59,26.13,39.41,3.41,2.47,7.75,3.66,11.64,5.43Zm-50.83-76.96c4.37-.27,8.33-.57,12.29-.74,15.22-.65,29.98-2.6,43.29-11.13,5.59-3.58,12.39-2.9,17.11,1.73,8.39,8.23,18.56,9.86,29.8,10.12-1.46-19.82-9.99-35.54-27.4-45.32-18.11-10.17-36.35-8.75-53.31,3.01-14.64,10.14-21.47,24.68-21.79,42.34ZM13.02,255.94c-.06.84-.18,1.34-.11,1.81,1.13,7.09,6.27,11,14.58,11,62.83.01,125.66,0,188.49,0,1.17,0,2.33-.14,3.61-.22-.93-3.12-2.2-5.82-2.46-8.6-.33-3.54-2.02-4.05-5.11-4.04-64.95.08-129.91.06-194.86.06h-4.14Zm219.17,7.61l-.87.85c3.21,3.57,5.95,7.76,9.73,10.56,6.99,5.18,14.41,9.86,21.98,14.18,11.94,6.82,24.34,7.16,36.38.35,8.01-4.53,15.83-9.51,23.26-14.94,3.64-2.67,6.19-6.83,9.23-10.32-33.76,6.77-66.74,6.81-99.71-.69Zm-22.75,43.97c-.61-.12-.98-.24-1.34-.24-28.59-.01-57.17-.04-85.76.01-4.5,0-7.11,2.57-7.04,6.47.07,3.78,2.81,6.27,7.34,6.28,23.59.05,47.19.04,70.78-.02,1.13,0,2.52-.39,3.35-1.1,4.22-3.63,8.29-7.43,12.66-11.4Zm-64.54-13.32h55.74c-1.82-3.72-3.26-7.12-5.14-10.27-.66-1.11-2.38-2.23-3.63-2.25-12.73-.16-25.46-.14-38.19-.03-1.12.01-2.74.75-3.27,1.65-1.93,3.32-3.5,6.85-5.51,10.9Zm-4.18-79.82c-5.15-1.03-9.73-2.05-14.36-2.8-1.05-.17-2.55.26-3.33.98-3.93,3.6-7.69,7.39-11.01,10.63,5.16,5.26,9.99,10.18,14.98,15.26,4.37-7.67,8.85-15.53,13.72-24.07Zm-76.35.55c4.67,8.18,9.17,16.05,13.39,23.44,5.06-5.01,9.99-9.88,15.29-15.13-1.43-1.28-3.51-2.51-4.71-4.31-5.91-8.9-13.67-8.33-22.15-4.71-.46.19-.92.37-1.82.72ZM120.87,54.19c-1.37-9.81-10.98-16.93-20.46-15.7-8.83,1.14-16.65,8.55-15.97,15.29,12.02-3.49,24.04-3.38,36.43.41Zm125.85,240.44c-4.61-3.19-9.1-5.7-12.84-9.05-3.75-3.36-7.7-4.45-12.54-4.07-3.98.32-8.01.06-12.57.06,2.08,4.17,3.59,7.59,5.49,10.78.6,1.01,2.22,1.93,3.41,1.98,5.33.23,10.74-.32,15.67,2.51.47.27,1.23.17,1.82.06,3.54-.66,7.07-1.38,11.56-2.27ZM53.18,221.19c-7.38,5.91-11.99,12.82-13.92,21.65h26.3c-4.24-7.41-8.22-14.37-12.39-21.65Zm112.45,21.79c-2.06-9.03-6.67-16.05-14.04-21.79-4.2,7.37-8.21,14.41-12.41,21.79h26.45Zm-63.57-29.01c4.02-3.89,7.96-7.7,12.14-11.75-7.93,3.36-15.76,3.3-23.64,0,4.14,4.23,8.02,8.2,11.5,11.75Zm.63,20.35c-2.93,2.77-6.02,5.7-9.07,8.59h17.8c-3.16-3.11-6.21-6.12-8.72-8.59Z"/><path d="m252.69,63.93c-11.49,0-22.99.06-34.48-.03-4.96-.04-7.96-3.73-6.66-8.08,1.05-3.53,3.82-4.68,7.25-4.68,7.87,0,15.74,0,23.61,0,14.62,0,29.24-.12,43.85.13,2.33.04,5.22,1.23,6.75,2.89,1.15,1.24,1.39,4.66.47,6.12-1.11,1.76-3.86,3.42-5.94,3.48-11.61.33-23.23.16-34.85.16Z"/><path d="m269.09,83.23c5.99,0,11.97-.04,17.96.01,4.46.04,7.24,2.49,7.28,6.28.04,3.81-2.74,6.43-7.13,6.45-12.22.06-24.45.05-36.67,0-4.38-.02-7.29-2.61-7.34-6.31-.06-3.81,2.95-6.41,7.57-6.44,6.11-.04,12.22,0,18.33,0Z"/><path d="m220.94,83.24c6.47-.02,9.4,1.99,9.37,6.4-.03,4.37-2.98,6.36-9.46,6.36-1.12,0-2.25.06-3.36-.03-3.84-.31-6.28-2.95-6.17-6.6.11-3.48,2.52-5.87,6.25-6.11,1.12-.07,2.24-.01,3.36-.01Z"/></svg>